{
  "accessors": [
    {
      "bufferView": 2,
      "componentType": 5126,
      "count": 25609,
      "max": [
        183.06260681152344,
        185.17880249023438,
        73.74940490722656
      ],
      "min": [
        109.31300354003906,
        0.0,
        0.0
      ],
      "type": "VEC3"
    },
    {
      "bufferView": 2,
      "byteOffset": 307308,
      "componentType": 5126,
      "count": 25609,
      "max": [
        0.999906063079834,
        0.9999977350234985,
        0.9999040365219116
      ],
      "min": [
        -0.999906063079834,
        -0.9999978542327881,
        -0.9999041557312012
      ],
      "type": "VEC3"
    },
    {
      "bufferView": 1,
      "componentType": 5126,
      "count": 25609,
      "max": [
        0.9980000257492065,
        0.9980999827384949
      ],
      "min": [
        0.0019000000320374966,
        0.08020000159740448
      ],
      "type": "VEC2"
    },
    {
      "bufferView": 0,
      "componentType": 5125,
      "count": 146688,
      "type": "SCALAR"
    },
    {
      "bufferView": 2,
      "byteOffset": 614616,
      "componentType": 5126,
      "count": 25910,
      "max": [
        73.70880126953125,
        185.22000122070313,
        73.8656005859375
      ],
      "min": [
        0.0,
        0.2266998291015625,
        0.15700149536132813
      ],
      "type": "VEC3"
    },
    {
      "bufferView": 2,
      "byteOffset": 925536,
      "componentType": 5126,
      "count": 25910,
      "max": [
        0.9997413754463196,
        0.9999934434890747,
        0.9997439980506897
      ],
      "min": [
        -0.9997442364692688,
        -0.9999916553497314,
        -0.999744713306427
      ],
      "type": "VEC3"
    },
    {
      "bufferView": 1,
      "byteOffset": 204872,
      "componentType": 5126,
      "count": 25910,
      "max": [
        0.9980000257492065,
        0.9980000257492065
      ],
      "min": [
        0.0019000000320374966,
        0.05350000038743019
      ],
      "type": "VEC2"
    },
    {
      "bufferView": 0,
      "byteOffset": 586752,
      "componentType": 5125,
      "count": 146688,
      "type": "SCALAR"
    }
  ],
  "asset": {
    "extras": {
      "author": "Virtual Museums of Małopolska (https://sketchfab.com/WirtualneMuzeaMalopolski)",
      "license": "CC-BY-4.0 (http://creativecommons.org/licenses/by/4.0/)",
      "source": "https://sketchfab.com/3d-models/two-small-vases-ornamented-with-cranes-in-flight-46a7d32cb6a646f6a780a2c585773608",
      "title": "Two small vases ornamented with cranes in flight"
    },
    "generator": "Sketchfab-12.68.0",
    "version": "2.0"
  },
  "bufferViews": [
    {
      "buffer": 0,
      "byteLength": 1173504,
      "name": "floatBufferViews",
      "target": 34963
    },
    {
      "buffer": 0,
      "byteLength": 412152,
      "byteOffset": 1173504,
      "byteStride": 8,
      "name": "floatBufferViews",
      "target": 34962
    },
    {
      "buffer": 0,
      "byteLength": 1236456,
      "byteOffset": 1585656,
      "byteStride": 12,
      "name": "floatBufferViews",
      "target": 34962
    }
  ],
  "buffers": [
    {
      "byteLength": 2822112,
      "uri": "scene.bin"
    }
  ],
  "images": [
    {
      "uri": "textures/wazon_A_baseColor.jpeg"
    },
    {
      "uri": "textures/wazon_A_metallicRoughness.png"
    },
    {
      "uri": "textures/wazon_B_baseColor.jpeg"
    },
    {
      "uri": "textures/wazon_B_metallicRoughness.png"
    }
  ],
  "materials": [
    {
      "doubleSided": true,
      "emissiveFactor": [
        1.0,
        1.0,
        1.0
      ],
      "emissiveTexture": {
        "index": 0
      },
      "name": "wazon_A",
      "pbrMetallicRoughness": {
        "baseColorTexture": {
          "index": 0
        },
        "metallicRoughnessTexture": {
          "index": 1
        },
        "roughnessFactor": 0.0
      }
    },
    {
      "doubleSided": true,
      "emissiveFactor": [
        1.0,
        1.0,
        1.0
      ],
      "emissiveTexture": {
        "index": 2
      },
      "name": "wazon_B",
      "pbrMetallicRoughness": {
        "baseColorTexture": {
          "index": 2
        },
        "metallicRoughnessTexture": {
          "index": 3
        },
        "roughnessFactor": 0.0
      }
    }
  ],
  "meshes": [
    {
      "name": "Object_0",
      "primitives": [
        {
          "attributes": {
            "NORMAL": 1,
            "POSITION": 0,
            "TEXCOORD_0": 2
          },
          "indices": 3,
          "material": 0,
          "mode": 4
        }
      ]
    },
    {
      "name": "Object_1",
      "primitives": [
        {
          "attributes": {
            "NORMAL": 5,
            "POSITION": 4,
            "TEXCOORD_0": 6
          },
          "indices": 7,
          "material": 1,
          "mode": 4
        }
      ]
    }
  ],
  "nodes": [
    {
      "children": [
        1
      ],
      "matrix": [
        -1.0,
        4.4408920985006257e-16,
        1.7225464509177415e-16,
        0.0,
        -4.440892098500626e-16,
        -1.0,
        0.0,
        0.0,
        1.7225464509177405e-16,
        0.0,
        1.0,
        0.0,
        6.784668221371248e-05,
        0.00015812377387192103,
        -0.00015812377387192098,
        1.0
      ],
      "name": "Sketchfab_model"
    },
    {
      "children": [
        2
      ],
      "matrix": [
        1.0,
        0.0,
        0.0,
        0.0,
        0.0,
        1.0,
        0.0,
        0.0,
        0.0,
        0.0,
        1.0,
        0.0,
        -91.53130340576172,
        -92.61000061035156,
        -36.932701110839844,
        1.0
      ],
      "name": "MSITJM1142_1_2_Para_wazonikow_z_dekoracja_zurawi.obj.cleaner.gles"
    },
    {
      "children": [
        3,
        4
      ],
      "name": "Object_2"
    },
    {
      "mesh": 0,
      "name": "Object_3"
    },
    {
      "mesh": 1,
      "name": "Object_4"
    }
  ],
  "samplers": [
    {
      "magFilter": 9729,
      "minFilter": 9987,
      "wrapS": 10497,
      "wrapT": 10497
    }
  ],
  "scene": 0,
  "scenes": [
    {
      "name": "Sketchfab_Scene",
      "nodes": [
        0
      ]
    }
  ],
  "textures": [
    {
      "sampler": 0,
      "source": 0
    },
    {
      "sampler": 0,
      "source": 1
    },
    {
      "sampler": 0,
      "source": 2
    },
    {
      "sampler": 0,
      "source": 3
    }
  ]
}
