{
  "accessors": [
    {
      "bufferView": 2,
      "componentType": 5126,
      "count": 65532,
      "max": [
        5.7348952293396,
        5.765222072601318,
        20.51491928100586
      ],
      "min": [
        -5.930020809173584,
        -5.983829021453857,
        0.8953970074653625
      ],
      "type": "VEC3"
    },
    {
      "bufferView": 2,
      "byteOffset": 786384,
      "componentType": 5126,
      "count": 65532,
      "max": [
        0.9999639987945557,
        0.9999722242355347,
        0.999997615814209
      ],
      "min": [
        -0.9999833703041077,
        -0.999795138835907,
        -0.9999980926513672
      ],
      "type": "VEC3"
    },
    {
      "bufferView": 3,
      "componentType": 5126,
      "count": 65532,
      "max": [
        0.999963104724884,
        0.9999909400939941,
        0.999995231628418,
        1.0
      ],
      "min": [
        -0.9999974966049194,
        -0.999933660030365,
        -0.9999926686286926,
        1.0
      ],
      "type": "VEC4"
    },
    {
      "bufferView": 1,
      "componentType": 5126,
      "count": 65532,
      "max": [
        0.9979400038719177,
        0.9980400204658508
      ],
      "min": [
        0.0019499999471008778,
        0.0019499999471008778
      ],
      "type": "VEC2"
    },
    {
      "bufferView": 0,
      "componentType": 5125,
      "count": 311118,
      "type": "SCALAR"
    },
    {
      "bufferView": 2,
      "byteOffset": 1572768,
      "componentType": 5126,
      "count": 7725,
      "max": [
        5.748313903808594,
        5.439897060394287,
        9.170185089111328
      ],
      "min": [
        -5.8211750984191895,
        -5.877649784088135,
        0.904338002204895
      ],
      "type": "VEC3"
    },
    {
      "bufferView": 2,
      "byteOffset": 1665468,
      "componentType": 5126,
      "count": 7725,
      "max": [
        0.9999357461929321,
        0.9999722242355347,
        0.999971330165863
      ],
      "min": [
        -0.9988332390785217,
        -0.9985101222991943,
        -0.9999809861183167
      ],
      "type": "VEC3"
    },
    {
      "bufferView": 3,
      "byteOffset": 1048512,
      "componentType": 5126,
      "count": 7725,
      "max": [
        0.9954865574836731,
        0.9999440908432007,
        0.9999778866767883,
        1.0
      ],
      "min": [
        -0.9994986057281494,
        -0.9993792772293091,
        -0.9998781681060791,
        1.0
      ],
      "type": "VEC4"
    },
    {
      "bufferView": 1,
      "byteOffset": 524256,
      "componentType": 5126,
      "count": 7725,
      "max": [
        0.9979000091552734,
        0.9914199709892273
      ],
      "min": [
        0.0019499999471008778,
        0.0019499999471008778
      ],
      "type": "VEC2"
    },
    {
      "bufferView": 0,
      "byteOffset": 1244472,
      "componentType": 5125,
      "count": 31788,
      "type": "SCALAR"
    }
  ],
  "asset": {
    "extras": {
      "author": "Virtual Museums of Małopolska (https://sketchfab.com/WirtualneMuzeaMalopolski)",
      "license": "CC-BY-4.0 (http://creativecommons.org/licenses/by/4.0/)",
      "source": "https://sketchfab.com/3d-models/mass-chalice-f72aa00ef9de4d96888f6df492ea80f0",
      "title": "Mass chalice"
    },
    "generator": "Sketchfab-14.38.0",
    "version": "2.0"
  },
  "bufferViews": [
    {
      "buffer": 0,
      "byteLength": 1371624,
      "name": "floatBufferViews",
      "target": 34963
    },
    {
      "buffer": 0,
      "byteLength": 586056,
      "byteOffset": 1371624,
      "byteStride": 8,
      "name": "floatBufferViews",
      "target": 34962
    },
    {
      "buffer": 0,
      "byteLength": 1758168,
      "byteOffset": 1957680,
      "byteStride": 12,
      "name": "floatBufferViews",
      "target": 34962
    },
    {
      "buffer": 0,
      "byteLength": 1172112,
      "byteOffset": 3715848,
      "byteStride": 16,
      "name": "floatBufferViews",
      "target": 34962
    }
  ],
  "buffers": [
    {
      "byteLength": 4887960,
      "uri": "scene.bin"
    }
  ],
  "images": [
    {
      "uri": "textures/MZM_D_S_60_Kielich_06_FIN_baseColor.png"
    },
    {
      "uri": "textures/MZM_D_S_60_Kielich_06_FIN_metallicRoughness.png"
    },
    {
      "uri": "textures/MZM_D_S_60_Kielich_06_FIN_normal.png"
    }
  ],
  "materials": [
    {
      "doubleSided": true,
      "name": "MZM_D_S_60_Kielich_06_FIN",
      "normalTexture": {
        "index": 2
      },
      "occlusionTexture": {
        "index": 1
      },
      "pbrMetallicRoughness": {
        "baseColorTexture": {
          "index": 0
        },
        "metallicRoughnessTexture": {
          "index": 1
        },
        "roughnessFactor": 0.7299069863831965
      }
    }
  ],
  "meshes": [
    {
      "name": "Object_0",
      "primitives": [
        {
          "attributes": {
            "NORMAL": 1,
            "POSITION": 0,
            "TANGENT": 2,
            "TEXCOORD_0": 3
          },
          "indices": 4,
          "material": 0,
          "mode": 4
        }
      ]
    },
    {
      "name": "Object_1",
      "primitives": [
        {
          "attributes": {
            "NORMAL": 6,
            "POSITION": 5,
            "TANGENT": 7,
            "TEXCOORD_0": 8
          },
          "indices": 9,
          "material": 0,
          "mode": 4
        }
      ]
    }
  ],
  "nodes": [
    {
      "children": [
        1
      ],
      "matrix": [
        1.0,
        0.0,
        0.0,
        0.0,
        0.0,
        2.220446049250313e-16,
        -1.0,
        0.0,
        0.0,
        1.0,
        2.220446049250313e-16,
        0.0,
        0.0,
        0.0,
        0.0,
        1.0
      ],
      "name": "Sketchfab_model"
    },
    {
      "children": [
        2,
        3
      ],
      "name": "kielich.obj.cleaner.materialmerger.gles"
    },
    {
      "mesh": 0,
      "name": "Object_2"
    },
    {
      "mesh": 1,
      "name": "Object_3"
    }
  ],
  "samplers": [
    {
      "magFilter": 9729,
      "minFilter": 9987,
      "wrapS": 10497,
      "wrapT": 10497
    }
  ],
  "scene": 0,
  "scenes": [
    {
      "name": "Sketchfab_Scene",
      "nodes": [
        0
      ]
    }
  ],
  "textures": [
    {
      "sampler": 0,
      "source": 0
    },
    {
      "sampler": 0,
      "source": 1
    },
    {
      "sampler": 0,
      "source": 2
    }
  ]
}
