{
  "accessors": [
    {
      "bufferView": 2,
      "componentType": 5126,
      "count": 62449,
      "max": [
        112.34690856933594,
        70.30291748046875,
        163.8280029296875
      ],
      "min": [
        0.0,
        0.0,
        0.0
      ],
      "type": "VEC3"
    },
    {
      "bufferView": 2,
      "byteOffset": 749388,
      "componentType": 5126,
      "count": 62449,
      "max": [
        0.9999503493309021,
        0.9999987483024597,
        0.9999991059303284
      ],
      "min": [
        -0.9999842643737793,
        -0.9999988675117493,
        -0.9999997615814209
      ],
      "type": "VEC3"
    },
    {
      "bufferView": 3,
      "componentType": 5126,
      "count": 62449,
      "max": [
        0.9999775886535645,
        0.999979555606842,
        0.9999988079071045,
        1.0
      ],
      "min": [
        -0.9999993443489075,
        -0.9999865889549255,
        -0.9999933838844299,
        -1.0
      ],
      "type": "VEC4"
    },
    {
      "bufferView": 1,
      "componentType": 5126,
      "count": 62449,
      "max": [
        0.9910370111465454,
        0.9951410293579102
      ],
      "min": [
        0.011706000193953514,
        0.009999999776482582
      ],
      "type": "VEC2"
    },
    {
      "bufferView": 0,
      "componentType": 5125,
      "count": 364527,
      "type": "SCALAR"
    }
  ],
  "asset": {
    "extras": {
      "author": "Virtual Museums of Małopolska (https://sketchfab.com/WirtualneMuzeaMalopolski)",
      "license": "CC0-1.0 (http://creativecommons.org/publicdomain/zero/1.0/)",
      "source": "https://sketchfab.com/3d-models/perfume-bottle-with-a-floral-miniature-16ad24d5697240ca80be6b3eeff49169",
      "title": "Perfume bottle with a floral miniature"
    },
    "generator": "Sketchfab-12.68.0",
    "version": "2.0"
  },
  "bufferViews": [
    {
      "buffer": 0,
      "byteLength": 1458108,
      "name": "floatBufferViews",
      "target": 34963
    },
    {
      "buffer": 0,
      "byteLength": 499592,
      "byteOffset": 1458108,
      "byteStride": 8,
      "name": "floatBufferViews",
      "target": 34962
    },
    {
      "buffer": 0,
      "byteLength": 1498776,
      "byteOffset": 1957700,
      "byteStride": 12,
      "name": "floatBufferViews",
      "target": 34962
    },
    {
      "buffer": 0,
      "byteLength": 999184,
      "byteOffset": 3456476,
      "byteStride": 16,
      "name": "floatBufferViews",
      "target": 34962
    }
  ],
  "buffers": [
    {
      "byteLength": 4455660,
      "uri": "scene.bin"
    }
  ],
  "extensionsRequired": [
    "KHR_materials_pbrSpecularGlossiness"
  ],
  "extensionsUsed": [
    "KHR_materials_pbrSpecularGlossiness"
  ],
  "images": [
    {
      "uri": "textures/uv_ps_diffuse.jpeg"
    },
    {
      "uri": "textures/uv_ps_specularGlossiness.png"
    },
    {
      "uri": "textures/uv_ps_normal.png"
    },
    {
      "uri": "textures/uv_ps_occlusion.png"
    }
  ],
  "materials": [
    {
      "doubleSided": true,
      "extensions": {
        "KHR_materials_pbrSpecularGlossiness": {
          "diffuseFactor": [
            1.0,
            1.0,
            1.0,
            1.0
          ],
          "diffuseTexture": {
            "index": 0
          },
          "glossinessFactor": 1.0,
          "specularFactor": [
            0.08708079268292684,
            0.08708079268292684,
            0.08708079268292684
          ],
          "specularGlossinessTexture": {
            "index": 1
          }
        }
      },
      "name": "uv_ps",
      "normalTexture": {
        "index": 2
      },
      "occlusionTexture": {
        "index": 3
      }
    }
  ],
  "meshes": [
    {
      "name": "Object_0",
      "primitives": [
        {
          "attributes": {
            "NORMAL": 1,
            "POSITION": 0,
            "TANGENT": 2,
            "TEXCOORD_0": 3
          },
          "indices": 4,
          "material": 0,
          "mode": 4
        }
      ]
    }
  ],
  "nodes": [
    {
      "children": [
        1
      ],
      "matrix": [
        1.0,
        -2.8327693431939995e-16,
        2.8327693431939985e-16,
        0.0,
        -2.832769343193999e-16,
        -2.2204460492503126e-16,
        1.0,
        0.0,
        -2.832769343193999e-16,
        -1.0,
        -2.2204460492503136e-16,
        0.0,
        -1.5631940186722204e-13,
        -14.333874702453869,
        1148.373046875,
        1.0
      ],
      "name": "Sketchfab_model"
    },
    {
      "children": [
        2
      ],
      "matrix": [
        1.0,
        0.0,
        0.0,
        0.0,
        0.0,
        1.0,
        0.0,
        0.0,
        0.0,
        0.0,
        1.0,
        0.0,
        -180.6529998779297,
        -609.3379516601563,
        -89.08101654052734,
        1.0
      ],
      "name": "uv_ps.obj.cleaner.materialmerger.gles"
    },
    {
      "children": [
        3
      ],
      "name": "Object_2"
    },
    {
      "mesh": 0,
      "name": "Object_3"
    }
  ],
  "samplers": [
    {
      "magFilter": 9729,
      "minFilter": 9987,
      "wrapS": 10497,
      "wrapT": 10497
    }
  ],
  "scene": 0,
  "scenes": [
    {
      "name": "Sketchfab_Scene",
      "nodes": [
        0
      ]
    }
  ],
  "textures": [
    {
      "sampler": 0,
      "source": 0
    },
    {
      "sampler": 0,
      "source": 1
    },
    {
      "sampler": 0,
      "source": 2
    },
    {
      "sampler": 0,
      "source": 3
    }
  ]
}
