{
  "accessors": [
    {
      "bufferView": 2,
      "componentType": 5126,
      "count": 39503,
      "max": [
        4.464049816131592,
        3.7784500122070313,
        10.736180305480957
      ],
      "min": [
        -4.302720069885254,
        -3.3903799057006836,
        -9.387680053710938
      ],
      "type": "VEC3"
    },
    {
      "bufferView": 2,
      "byteOffset": 474036,
      "componentType": 5126,
      "count": 39503,
      "max": [
        0.9999992251396179,
        0.9999951720237732,
        0.9999077916145325
      ],
      "min": [
        -0.9999954104423523,
        -0.9999933838844299,
        -0.9999951720237732
      ],
      "type": "VEC3"
    },
    {
      "bufferView": 3,
      "componentType": 5126,
      "count": 39503,
      "max": [
        0.999937117099762,
        0.9999810457229614,
        0.9999861717224121,
        1.0
      ],
      "min": [
        -0.9999623894691467,
        -0.9998934864997864,
        -0.9999998807907104,
        -1.0
      ],
      "type": "VEC4"
    },
    {
      "bufferView": 1,
      "componentType": 5126,
      "count": 39503,
      "max": [
        0.9812399744987488,
        0.9960399866104126
      ],
      "min": [
        0.003949999809265137,
        0.003949999809265137
      ],
      "type": "VEC2"
    },
    {
      "bufferView": 0,
      "componentType": 5125,
      "count": 221952,
      "type": "SCALAR"
    }
  ],
  "asset": {
    "extras": {
      "author": "Virtual Museums of Małopolska (https://sketchfab.com/WirtualneMuzeaMalopolski)",
      "license": "CC0-1.0 (http://creativecommons.org/publicdomain/zero/1.0/)",
      "source": "https://sketchfab.com/3d-models/ritual-hare-mask-6849e43a478b4b15ab75f6321d0ed795",
      "title": "Ritual “hare” mask"
    },
    "generator": "Sketchfab-12.68.0",
    "version": "2.0"
  },
  "bufferViews": [
    {
      "buffer": 0,
      "byteLength": 887808,
      "name": "floatBufferViews",
      "target": 34963
    },
    {
      "buffer": 0,
      "byteLength": 316024,
      "byteOffset": 887808,
      "byteStride": 8,
      "name": "floatBufferViews",
      "target": 34962
    },
    {
      "buffer": 0,
      "byteLength": 948072,
      "byteOffset": 1203832,
      "byteStride": 12,
      "name": "floatBufferViews",
      "target": 34962
    },
    {
      "buffer": 0,
      "byteLength": 632048,
      "byteOffset": 2151904,
      "byteStride": 16,
      "name": "floatBufferViews",
      "target": 34962
    }
  ],
  "buffers": [
    {
      "byteLength": 2783952,
      "uri": "scene.bin"
    }
  ],
  "images": [
    {
      "uri": "textures/defaultMat_baseColor.jpeg"
    },
    {
      "uri": "textures/defaultMat_normal.png"
    }
  ],
  "materials": [
    {
      "doubleSided": true,
      "name": "defaultMat",
      "normalTexture": {
        "index": 1
      },
      "pbrMetallicRoughness": {
        "baseColorTexture": {
          "index": 0
        },
        "metallicFactor": 0.0,
        "roughnessFactor": 0.580983231707317
      }
    }
  ],
  "meshes": [
    {
      "name": "MOA_255_Maska_zajaca_08txtr_0",
      "primitives": [
        {
          "attributes": {
            "NORMAL": 1,
            "POSITION": 0,
            "TANGENT": 2,
            "TEXCOORD_0": 3
          },
          "indices": 4,
          "material": 0,
          "mode": 4
        }
      ]
    }
  ],
  "nodes": [
    {
      "children": [
        1
      ],
      "matrix": [
        1.0,
        0.0,
        0.0,
        0.0,
        0.0,
        2.220446049250313e-16,
        -1.0,
        0.0,
        0.0,
        1.0,
        2.220446049250313e-16,
        0.0,
        -0.06357837468385696,
        0.0639866292476654,
        0.010025366209447398,
        1.0
      ],
      "name": "Sketchfab_model"
    },
    {
      "children": [
        2,
        4
      ],
      "name": "Root"
    },
    {
      "children": [
        3
      ],
      "matrix": [
        -0.29086000000000006,
        0.9551700000000001,
        -0.05519000000000001,
        0.0,
        -0.7711,
        -0.19988000000000003,
        0.6045200000000001,
        0.0,
        0.5663900000000001,
        0.21839000000000003,
        0.7946700000000001,
        0.0,
        4.076250000000001,
        1.00545,
        5.903860000000001,
        1.0
      ],
      "name": "Lamp"
    },
    {
      "name": "Lamp"
    },
    {
      "children": [
        5
      ],
      "matrix": [
        0.9976900000000001,
        0.06788000000000001,
        0.0,
        0.0,
        -0.06784000000000001,
        0.9971,
        -0.03450000000000001,
        0.0,
        -0.0023400000000000005,
        0.034420000000000006,
        0.9994,
        0.0,
        0.0,
        0.0,
        0.0,
        1.0
      ],
      "name": "MOA_255_Maska_zajaca_08txtr"
    },
    {
      "mesh": 0,
      "name": "MOA_255_Maska_zajaca_08txtr_0"
    }
  ],
  "samplers": [
    {
      "magFilter": 9729,
      "minFilter": 9987,
      "wrapS": 10497,
      "wrapT": 10497
    }
  ],
  "scene": 0,
  "scenes": [
    {
      "name": "Sketchfab_Scene",
      "nodes": [
        0
      ]
    }
  ],
  "textures": [
    {
      "sampler": 0,
      "source": 0
    },
    {
      "sampler": 0,
      "source": 1
    }
  ]
}
