{
  "accessors": [
    {
      "bufferView": 2,
      "componentType": 5126,
      "count": 36078,
      "max": [
        104.92160034179688,
        54.24129867553711,
        134.56430053710938
      ],
      "min": [
        -105.34700012207031,
        -108.24440002441406,
        -29.298500061035156
      ],
      "type": "VEC3"
    },
    {
      "bufferView": 2,
      "byteOffset": 432936,
      "componentType": 5126,
      "count": 36078,
      "max": [
        0.9998840093612671,
        1.0,
        0.999970018863678
      ],
      "min": [
        -0.9999775886535645,
        -0.9997690916061401,
        -0.9998686909675598
      ],
      "type": "VEC3"
    },
    {
      "bufferView": 1,
      "componentType": 5126,
      "count": 36078,
      "max": [
        0.9965000152587891,
        1.0
      ],
      "min": [
        0.006399999838322401,
        0.0026000000070780516
      ],
      "type": "VEC2"
    },
    {
      "bufferView": 1,
      "byteOffset": 288624,
      "componentType": 5126,
      "count": 36078,
      "max": [
        0.9965000152587891,
        1.0
      ],
      "min": [
        0.006399999838322401,
        0.0026000000070780516
      ],
      "type": "VEC2"
    },
    {
      "bufferView": 1,
      "byteOffset": 577248,
      "componentType": 5126,
      "count": 36078,
      "max": [
        0.9965000152587891,
        1.0
      ],
      "min": [
        0.006399999838322401,
        0.0026000000070780516
      ],
      "type": "VEC2"
    },
    {
      "bufferView": 0,
      "componentType": 5125,
      "count": 156393,
      "type": "SCALAR"
    },
    {
      "bufferView": 2,
      "byteOffset": 865872,
      "componentType": 5126,
      "count": 20043,
      "max": [
        65.06120300292969,
        105.70880126953125,
        61.225799560546875
      ],
      "min": [
        -41.66299819946289,
        -23.069599151611328,
        -22.18320083618164
      ],
      "type": "VEC3"
    },
    {
      "bufferView": 2,
      "byteOffset": 1106388,
      "componentType": 5126,
      "count": 20043,
      "max": [
        0.999839186668396,
        0.9999346137046814,
        0.9999870657920837
      ],
      "min": [
        -0.9998370409011841,
        -0.999992847442627,
        -0.9999420642852783
      ],
      "type": "VEC3"
    },
    {
      "bufferView": 1,
      "byteOffset": 865872,
      "componentType": 5126,
      "count": 20043,
      "max": [
        0.9983999729156494,
        0.9689000248908997
      ],
      "min": [
        0.006399999838322401,
        0.06610000133514404
      ],
      "type": "VEC2"
    },
    {
      "bufferView": 1,
      "byteOffset": 1026216,
      "componentType": 5126,
      "count": 20043,
      "max": [
        0.9983999729156494,
        0.9689000248908997
      ],
      "min": [
        0.006399999838322401,
        0.06610000133514404
      ],
      "type": "VEC2"
    },
    {
      "bufferView": 1,
      "byteOffset": 1186560,
      "componentType": 5126,
      "count": 20043,
      "max": [
        0.9983999729156494,
        0.9689000248908997
      ],
      "min": [
        0.006399999838322401,
        0.06610000133514404
      ],
      "type": "VEC2"
    },
    {
      "bufferView": 0,
      "byteOffset": 625572,
      "componentType": 5125,
      "count": 87618,
      "type": "SCALAR"
    },
    {
      "bufferView": 2,
      "byteOffset": 1346904,
      "componentType": 5126,
      "count": 144,
      "max": [
        12.199600219726563,
        47.10649871826172,
        8.820799827575684
      ],
      "min": [
        -23.430999755859375,
        11.629799842834473,
        1.7346999645233154
      ],
      "type": "VEC3"
    },
    {
      "bufferView": 2,
      "byteOffset": 1348632,
      "componentType": 5126,
      "count": 144,
      "max": [
        0.290324330329895,
        0.27448606491088867,
        0.9999486207962036
      ],
      "min": [
        -0.24637635052204132,
        -0.3645257353782654,
        -0.9960625171661377
      ],
      "type": "VEC3"
    },
    {
      "bufferView": 1,
      "byteOffset": 1346904,
      "componentType": 5126,
      "count": 144,
      "max": [
        0.9889000058174133,
        0.8851000070571899
      ],
      "min": [
        0.8837000131607056,
        0.7818999886512756
      ],
      "type": "VEC2"
    },
    {
      "bufferView": 1,
      "byteOffset": 1348056,
      "componentType": 5126,
      "count": 144,
      "max": [
        0.9889000058174133,
        0.8851000070571899
      ],
      "min": [
        0.8837000131607056,
        0.7818999886512756
      ],
      "type": "VEC2"
    },
    {
      "bufferView": 1,
      "byteOffset": 1349208,
      "componentType": 5126,
      "count": 144,
      "max": [
        0.9889000058174133,
        0.8851000070571899
      ],
      "min": [
        0.8837000131607056,
        0.7818999886512756
      ],
      "type": "VEC2"
    },
    {
      "bufferView": 0,
      "byteOffset": 976044,
      "componentType": 5125,
      "count": 510,
      "type": "SCALAR"
    },
    {
      "bufferView": 2,
      "byteOffset": 1350360,
      "componentType": 5126,
      "count": 14480,
      "max": [
        40.875,
        30.445100784301758,
        65.20580291748047
      ],
      "min": [
        -42.472999572753906,
        -50.25410079956055,
        -4.310400009155273
      ],
      "type": "VEC3"
    },
    {
      "bufferView": 2,
      "byteOffset": 1524120,
      "componentType": 5126,
      "count": 14480,
      "max": [
        0.9999780654907227,
        0.9999632835388184,
        0.9999467730522156
      ],
      "min": [
        -0.9999769330024719,
        -0.9999935030937195,
        -0.9997791647911072
      ],
      "type": "VEC3"
    },
    {
      "bufferView": 1,
      "byteOffset": 1350360,
      "componentType": 5126,
      "count": 14480,
      "max": [
        0.772599995136261,
        0.7720000147819519
      ],
      "min": [
        0.016499999910593033,
        0.011599999852478504
      ],
      "type": "VEC2"
    },
    {
      "bufferView": 1,
      "byteOffset": 1466200,
      "componentType": 5126,
      "count": 14480,
      "max": [
        0.772599995136261,
        0.7720000147819519
      ],
      "min": [
        0.016499999910593033,
        0.011599999852478504
      ],
      "type": "VEC2"
    },
    {
      "bufferView": 1,
      "byteOffset": 1582040,
      "componentType": 5126,
      "count": 14480,
      "max": [
        0.772599995136261,
        0.7720000147819519
      ],
      "min": [
        0.016499999910593033,
        0.011599999852478504
      ],
      "type": "VEC2"
    },
    {
      "bufferView": 0,
      "byteOffset": 978084,
      "componentType": 5125,
      "count": 43371,
      "type": "SCALAR"
    }
  ],
  "asset": {
    "extras": {
      "author": "Virtual Museums of Małopolska (https://sketchfab.com/WirtualneMuzeaMalopolski)",
      "license": "CC0-1.0 (http://creativecommons.org/publicdomain/zero/1.0/)",
      "source": "https://sketchfab.com/3d-models/mikiphone-pocket-phonograph-8c621ade8ba145c888e13dc12c560701",
      "title": "Mikiphone pocket phonograph"
    },
    "generator": "Sketchfab-12.68.0",
    "version": "2.0"
  },
  "bufferViews": [
    {
      "buffer": 0,
      "byteLength": 1151568,
      "name": "floatBufferViews",
      "target": 34963
    },
    {
      "buffer": 0,
      "byteLength": 1697880,
      "byteOffset": 1151568,
      "byteStride": 8,
      "name": "floatBufferViews",
      "target": 34962
    },
    {
      "buffer": 0,
      "byteLength": 1697880,
      "byteOffset": 2849448,
      "byteStride": 12,
      "name": "floatBufferViews",
      "target": 34962
    }
  ],
  "buffers": [
    {
      "byteLength": 4547328,
      "uri": "scene.bin"
    }
  ],
  "images": [
    {
      "uri": "textures/Standard_16_baseColor.jpeg"
    }
  ],
  "materials": [
    {
      "doubleSided": true,
      "name": "Standard_16",
      "pbrMetallicRoughness": {
        "baseColorTexture": {
          "index": 0
        },
        "metallicFactor": 0.0,
        "roughnessFactor": 0.1
      }
    },
    {
      "doubleSided": true,
      "name": "mik_matt",
      "pbrMetallicRoughness": {
        "baseColorTexture": {
          "index": 0
        },
        "metallicFactor": 0.0,
        "roughnessFactor": 0.65
      }
    },
    {
      "doubleSided": true,
      "name": "mik_glass",
      "pbrMetallicRoughness": {
        "baseColorTexture": {
          "index": 0
        },
        "metallicFactor": 0.0
      }
    },
    {
      "doubleSided": true,
      "name": "mik_rdza",
      "pbrMetallicRoughness": {
        "baseColorTexture": {
          "index": 0
        },
        "metallicFactor": 0.0
      }
    }
  ],
  "meshes": [
    {
      "name": "MIM299_V-46_fonograf_kieszonkowy_Mikiphone_Standard_16_0",
      "primitives": [
        {
          "attributes": {
            "NORMAL": 1,
            "POSITION": 0,
            "TEXCOORD_0": 2,
            "TEXCOORD_1": 3,
            "TEXCOORD_2": 4
          },
          "indices": 5,
          "material": 0,
          "mode": 4
        }
      ]
    },
    {
      "name": "mik_matt_mik_matt_0",
      "primitives": [
        {
          "attributes": {
            "NORMAL": 7,
            "POSITION": 6,
            "TEXCOORD_0": 8,
            "TEXCOORD_1": 9,
            "TEXCOORD_2": 10
          },
          "indices": 11,
          "material": 1,
          "mode": 4
        }
      ]
    },
    {
      "name": "mik_glass_mik_glass_0",
      "primitives": [
        {
          "attributes": {
            "NORMAL": 13,
            "POSITION": 12,
            "TEXCOORD_0": 14,
            "TEXCOORD_1": 15,
            "TEXCOORD_2": 16
          },
          "indices": 17,
          "material": 2,
          "mode": 4
        }
      ]
    },
    {
      "name": "mik_rdza_mik_rdza_0",
      "primitives": [
        {
          "attributes": {
            "NORMAL": 19,
            "POSITION": 18,
            "TEXCOORD_0": 20,
            "TEXCOORD_1": 21,
            "TEXCOORD_2": 22
          },
          "indices": 23,
          "material": 3,
          "mode": 4
        }
      ]
    }
  ],
  "nodes": [
    {
      "children": [
        1
      ],
      "matrix": [
        -1.0,
        2.220446049250313e-16,
        4.930380657631324e-32,
        0.0,
        0.0,
        2.220446049250313e-16,
        -1.0,
        0.0,
        -2.220446049250313e-16,
        -1.0,
        -2.220446049250313e-16,
        0.0,
        -0.425537109375,
        -105.26602935791016,
        -2.3373753900803908e-14,
        1.0
      ],
      "name": "Sketchfab_model"
    },
    {
      "children": [
        2
      ],
      "matrix": [
        1.0,
        0.0,
        0.0,
        0.0,
        0.0,
        -1.0,
        0.0,
        0.0,
        0.0,
        0.0,
        -1.0,
        0.0,
        0.0,
        0.0,
        0.0,
        1.0
      ],
      "name": "b1cc6c0a04ca49259fbad222f7eb761d.fbx"
    },
    {
      "children": [
        3,
        5,
        7,
        9
      ],
      "name": "RootNode"
    },
    {
      "children": [
        4
      ],
      "name": "MIM299_V-46_fonograf_kieszonkowy_Mikiphone"
    },
    {
      "mesh": 0,
      "name": "MIM299_V-46_fonograf_kieszonkowy_Mikiphone_Standard_16_0"
    },
    {
      "children": [
        6
      ],
      "name": "mik_matt"
    },
    {
      "mesh": 1,
      "name": "mik_matt_mik_matt_0"
    },
    {
      "children": [
        8
      ],
      "name": "mik_glass"
    },
    {
      "mesh": 2,
      "name": "mik_glass_mik_glass_0"
    },
    {
      "children": [
        10
      ],
      "name": "mik_rdza"
    },
    {
      "mesh": 3,
      "name": "mik_rdza_mik_rdza_0"
    }
  ],
  "samplers": [
    {
      "magFilter": 9729,
      "minFilter": 9987,
      "wrapS": 10497,
      "wrapT": 10497
    }
  ],
  "scene": 0,
  "scenes": [
    {
      "name": "Sketchfab_Scene",
      "nodes": [
        0
      ]
    }
  ],
  "textures": [
    {
      "sampler": 0,
      "source": 0
    }
  ]
}
