{
  "accessors": [
    {
      "bufferView": 2,
      "componentType": 5126,
      "count": 12303,
      "max": [
        9.618871688842773,
        -0.030769269913434982,
        10.14262580871582
      ],
      "min": [
        -9.756790161132813,
        -11.688499450683594,
        -9.528511047363281
      ],
      "type": "VEC3"
    },
    {
      "bufferView": 2,
      "byteOffset": 147636,
      "componentType": 5126,
      "count": 12303,
      "max": [
        0.999995768070221,
        0.9999988675117493,
        0.9997377991676331
      ],
      "min": [
        -0.9998660683631897,
        -0.9986234903335571,
        -0.9997802376747131
      ],
      "type": "VEC3"
    },
    {
      "bufferView": 3,
      "componentType": 5126,
      "count": 12303,
      "max": [
        0.9849300980567932,
        0.999879002571106,
        0.9974412322044373,
        1.0
      ],
      "min": [
        -0.9892517924308777,
        -0.9995534420013428,
        -0.9335041642189026,
        -1.0
      ],
      "type": "VEC4"
    },
    {
      "bufferView": 1,
      "componentType": 5126,
      "count": 12303,
      "max": [
        0.9941700100898743,
        0.9980400204658508
      ],
      "min": [
        0.44523999094963074,
        0.3325900137424469
      ],
      "type": "VEC2"
    },
    {
      "bufferView": 0,
      "componentType": 5125,
      "count": 71730,
      "type": "SCALAR"
    },
    {
      "bufferView": 2,
      "byteOffset": 295272,
      "componentType": 5126,
      "count": 2915,
      "max": [
        7.874073505401611,
        -9.966261863708496,
        10.401314735412598
      ],
      "min": [
        -7.781948566436768,
        -11.853841781616211,
        -9.8431978225708
      ],
      "type": "VEC3"
    },
    {
      "bufferView": 2,
      "byteOffset": 330252,
      "componentType": 5126,
      "count": 2915,
      "max": [
        0.9963776469230652,
        0.9998620748519897,
        0.9999126195907593
      ],
      "min": [
        -0.9781272411346436,
        -0.9996345043182373,
        -0.9999858140945435
      ],
      "type": "VEC3"
    },
    {
      "bufferView": 3,
      "byteOffset": 196848,
      "componentType": 5126,
      "count": 2915,
      "max": [
        0.9985894560813904,
        0.9999534487724304,
        0.9300934672355652,
        1.0
      ],
      "min": [
        -0.9898834824562073,
        -0.9188358187675476,
        -0.9985039830207825,
        -1.0
      ],
      "type": "VEC4"
    },
    {
      "bufferView": 1,
      "byteOffset": 98424,
      "componentType": 5126,
      "count": 2915,
      "max": [
        0.6931800246238708,
        0.6793100237846375
      ],
      "min": [
        0.18881000578403473,
        0.19132000207901
      ],
      "type": "VEC2"
    },
    {
      "bufferView": 0,
      "byteOffset": 286920,
      "componentType": 5125,
      "count": 14112,
      "type": "SCALAR"
    },
    {
      "bufferView": 2,
      "byteOffset": 365232,
      "componentType": 5126,
      "count": 21667,
      "max": [
        10.01400375366211,
        -0.10307736694812775,
        10.577025413513184
      ],
      "min": [
        -10.13674259185791,
        -12.467242240905762,
        -10.082197189331055
      ],
      "type": "VEC3"
    },
    {
      "bufferView": 2,
      "byteOffset": 625236,
      "componentType": 5126,
      "count": 21667,
      "max": [
        0.999987006187439,
        0.9999760985374451,
        0.9999314546585083
      ],
      "min": [
        -0.9999908208847046,
        -0.999996542930603,
        -0.9999247789382935
      ],
      "type": "VEC3"
    },
    {
      "bufferView": 3,
      "byteOffset": 243488,
      "componentType": 5126,
      "count": 21667,
      "max": [
        0.9959775805473328,
        0.9999779462814331,
        0.9805684685707092,
        1.0
      ],
      "min": [
        -0.9990910291671753,
        -0.9999406933784485,
        -0.9999978542327881,
        -1.0
      ],
      "type": "VEC4"
    },
    {
      "bufferView": 1,
      "byteOffset": 121744,
      "componentType": 5126,
      "count": 21667,
      "max": [
        0.609969973564148,
        0.6023499965667725
      ],
      "min": [
        0.0019499999471008778,
        0.0019499999471008778
      ],
      "type": "VEC2"
    },
    {
      "bufferView": 0,
      "byteOffset": 343368,
      "componentType": 5125,
      "count": 127476,
      "type": "SCALAR"
    },
    {
      "bufferView": 2,
      "byteOffset": 885240,
      "componentType": 5126,
      "count": 5215,
      "max": [
        -1.711769938468933,
        -10.9933500289917,
        -8.270827293395996
      ],
      "min": [
        -6.304609298706055,
        -15.223597526550293,
        -10.948413848876953
      ],
      "type": "VEC3"
    },
    {
      "bufferView": 2,
      "byteOffset": 947820,
      "componentType": 5126,
      "count": 5215,
      "max": [
        0.9995629191398621,
        0.999993085861206,
        0.9999747276306152
      ],
      "min": [
        -0.9995505213737488,
        -0.9997857213020325,
        -0.9995584487915039
      ],
      "type": "VEC3"
    },
    {
      "bufferView": 3,
      "byteOffset": 590160,
      "componentType": 5126,
      "count": 5215,
      "max": [
        0.9996896982192993,
        0.999962568283081,
        0.9882473349571228,
        1.0
      ],
      "min": [
        -0.985591471195221,
        -0.9999887347221375,
        -0.999503493309021,
        -1.0
      ],
      "type": "VEC4"
    },
    {
      "bufferView": 1,
      "byteOffset": 295080,
      "componentType": 5126,
      "count": 5215,
      "max": [
        0.4011099934577942,
        0.8863599896430969
      ],
      "min": [
        0.20598000288009644,
        0.7462800145149231
      ],
      "type": "VEC2"
    },
    {
      "bufferView": 0,
      "byteOffset": 853272,
      "componentType": 5125,
      "count": 30336,
      "type": "SCALAR"
    },
    {
      "bufferView": 2,
      "byteOffset": 1010400,
      "componentType": 5126,
      "count": 5488,
      "max": [
        6.554616928100586,
        -10.556231498718262,
        11.788143157958984
      ],
      "min": [
        1.9237629175186157,
        -14.821491241455078,
        8.828364372253418
      ],
      "type": "VEC3"
    },
    {
      "bufferView": 2,
      "byteOffset": 1076256,
      "componentType": 5126,
      "count": 5488,
      "max": [
        0.9990325570106506,
        0.9990440607070923,
        0.9999486207962036
      ],
      "min": [
        -0.99993497133255,
        -0.9999634027481079,
        -0.999899685382843
      ],
      "type": "VEC3"
    },
    {
      "bufferView": 3,
      "byteOffset": 673600,
      "componentType": 5126,
      "count": 5488,
      "max": [
        0.999860942363739,
        0.9988988637924194,
        0.999999463558197,
        1.0
      ],
      "min": [
        -0.9999880790710449,
        -0.9983441233634949,
        -0.9997193813323975,
        1.0
      ],
      "type": "VEC4"
    },
    {
      "bufferView": 1,
      "byteOffset": 336800,
      "componentType": 5126,
      "count": 5488,
      "max": [
        0.8823300004005432,
        0.3702299892902374
      ],
      "min": [
        0.8426300287246704,
        0.13911999762058258
      ],
      "type": "VEC2"
    },
    {
      "bufferView": 0,
      "byteOffset": 974616,
      "componentType": 5125,
      "count": 31824,
      "type": "SCALAR"
    }
  ],
  "asset": {
    "extras": {
      "author": "Virtual Museums of Małopolska (https://sketchfab.com/WirtualneMuzeaMalopolski)",
      "license": "CC0-1.0 (http://creativecommons.org/publicdomain/zero/1.0/)",
      "source": "https://sketchfab.com/3d-models/cauldron-521be39e2ea94bbaa1f06f3e89b0ad97",
      "title": "Cauldron"
    },
    "generator": "Sketchfab-12.68.0",
    "version": "2.0"
  },
  "bufferViews": [
    {
      "buffer": 0,
      "byteLength": 1101912,
      "name": "floatBufferViews",
      "target": 34963
    },
    {
      "buffer": 0,
      "byteLength": 380704,
      "byteOffset": 1101912,
      "byteStride": 8,
      "name": "floatBufferViews",
      "target": 34962
    },
    {
      "buffer": 0,
      "byteLength": 1142112,
      "byteOffset": 1482616,
      "byteStride": 12,
      "name": "floatBufferViews",
      "target": 34962
    },
    {
      "buffer": 0,
      "byteLength": 761408,
      "byteOffset": 2624728,
      "byteStride": 16,
      "name": "floatBufferViews",
      "target": 34962
    }
  ],
  "buffers": [
    {
      "byteLength": 3386136,
      "uri": "scene.bin"
    }
  ],
  "images": [
    {
      "uri": "textures/defaultMat_baseColor.png"
    },
    {
      "uri": "textures/defaultMat_metallicRoughness.png"
    },
    {
      "uri": "textures/defaultMat_normal.png"
    }
  ],
  "materials": [
    {
      "doubleSided": true,
      "name": "defaultMat",
      "normalTexture": {
        "index": 2
      },
      "pbrMetallicRoughness": {
        "baseColorTexture": {
          "index": 0
        },
        "metallicFactor": 0.42854420731707316,
        "metallicRoughnessTexture": {
          "index": 1
        }
      }
    }
  ],
  "meshes": [
    {
      "name": "Object_0",
      "primitives": [
        {
          "attributes": {
            "NORMAL": 1,
            "POSITION": 0,
            "TANGENT": 2,
            "TEXCOORD_0": 3
          },
          "indices": 4,
          "material": 0,
          "mode": 4
        }
      ]
    },
    {
      "name": "Object_1",
      "primitives": [
        {
          "attributes": {
            "NORMAL": 6,
            "POSITION": 5,
            "TANGENT": 7,
            "TEXCOORD_0": 8
          },
          "indices": 9,
          "material": 0,
          "mode": 4
        }
      ]
    },
    {
      "name": "Object_2",
      "primitives": [
        {
          "attributes": {
            "NORMAL": 11,
            "POSITION": 10,
            "TANGENT": 12,
            "TEXCOORD_0": 13
          },
          "indices": 14,
          "material": 0,
          "mode": 4
        }
      ]
    },
    {
      "name": "Object_3",
      "primitives": [
        {
          "attributes": {
            "NORMAL": 16,
            "POSITION": 15,
            "TANGENT": 17,
            "TEXCOORD_0": 18
          },
          "indices": 19,
          "material": 0,
          "mode": 4
        }
      ]
    },
    {
      "name": "Object_4",
      "primitives": [
        {
          "attributes": {
            "NORMAL": 21,
            "POSITION": 20,
            "TANGENT": 22,
            "TEXCOORD_0": 23
          },
          "indices": 24,
          "material": 0,
          "mode": 4
        }
      ]
    }
  ],
  "nodes": [
    {
      "children": [
        1
      ],
      "matrix": [
        1.0,
        0.0,
        0.0,
        0.0,
        0.0,
        -1.0,
        0.0,
        0.0,
        0.0,
        0.0,
        -1.0,
        0.0,
        0.0,
        -7.207363128662111,
        8.046990394592283,
        1.0
      ],
      "name": "Sketchfab_model"
    },
    {
      "children": [
        2,
        3,
        4,
        5,
        6
      ],
      "name": "MT_E_3274_Kociol_46K_edit03w.OBJ.cleaner.materialmerger.gles"
    },
    {
      "mesh": 0,
      "name": "Object_2"
    },
    {
      "mesh": 1,
      "name": "Object_3"
    },
    {
      "mesh": 2,
      "name": "Object_4"
    },
    {
      "mesh": 3,
      "name": "Object_5"
    },
    {
      "mesh": 4,
      "name": "Object_6"
    }
  ],
  "samplers": [
    {
      "magFilter": 9729,
      "minFilter": 9987,
      "wrapS": 10497,
      "wrapT": 10497
    }
  ],
  "scene": 0,
  "scenes": [
    {
      "name": "Sketchfab_Scene",
      "nodes": [
        0
      ]
    }
  ],
  "textures": [
    {
      "sampler": 0,
      "source": 0
    },
    {
      "sampler": 0,
      "source": 1
    },
    {
      "sampler": 0,
      "source": 2
    }
  ]
}
