{
  "accessors": [
    {
      "bufferView": 2,
      "componentType": 5126,
      "count": 1542,
      "max": [
        0.5145999789237976,
        1.5303900241851807,
        1.6866899728775024
      ],
      "min": [
        -1.443160057067871,
        -1.2563199996948242,
        -1.5474900007247925
      ],
      "type": "VEC3"
    },
    {
      "bufferView": 2,
      "byteOffset": 18504,
      "componentType": 5126,
      "count": 1542,
      "max": [
        0.9879592657089233,
        0.8689976334571838,
        0.8037774562835693
      ],
      "min": [
        -0.991479754447937,
        -0.9931573867797852,
        -0.989549994468689
      ],
      "type": "VEC3"
    },
    {
      "bufferView": 1,
      "componentType": 5126,
      "count": 1542,
      "max": [
        0.9980400204658508,
        0.9309099912643433
      ],
      "min": [
        0.0019499999471008778,
        0.0019499999471008778
      ],
      "type": "VEC2"
    },
    {
      "bufferView": 0,
      "componentType": 5125,
      "count": 1788,
      "type": "SCALAR"
    },
    {
      "bufferView": 2,
      "byteOffset": 37008,
      "componentType": 5126,
      "count": 960,
      "max": [
        1.3030200004577637,
        2.4613900184631348,
        2.7897400856018066
      ],
      "min": [
        -1.1871999502182007,
        -2.48075008392334,
        -2.900049924850464
      ],
      "type": "VEC3"
    },
    {
      "bufferView": 2,
      "byteOffset": 48528,
      "componentType": 5126,
      "count": 960,
      "max": [
        0.9955313205718994,
        0.9851168394088745,
        0.9936226010322571
      ],
      "min": [
        -0.9965470433235168,
        -0.9820088148117065,
        -0.9884869456291199
      ],
      "type": "VEC3"
    },
    {
      "bufferView": 1,
      "byteOffset": 12336,
      "componentType": 5126,
      "count": 960,
      "max": [
        0.9980400204658508,
        0.9877200126647949
      ],
      "min": [
        0.0019499999471008778,
        0.0019499999471008778
      ],
      "type": "VEC2"
    },
    {
      "bufferView": 0,
      "byteOffset": 7152,
      "componentType": 5125,
      "count": 960,
      "type": "SCALAR"
    },
    {
      "bufferView": 2,
      "byteOffset": 60048,
      "componentType": 5126,
      "count": 10104,
      "max": [
        1.1339800357818604,
        2.4086101055145264,
        2.494379997253418
      ],
      "min": [
        -1.0022300481796265,
        -2.4529600143432617,
        -2.1223299503326416
      ],
      "type": "VEC3"
    },
    {
      "bufferView": 2,
      "byteOffset": 181296,
      "componentType": 5126,
      "count": 10104,
      "max": [
        0.9999749064445496,
        0.9995259642601013,
        0.999806821346283
      ],
      "min": [
        -0.999960720539093,
        -0.9998520016670227,
        -0.9990200996398926
      ],
      "type": "VEC3"
    },
    {
      "bufferView": 1,
      "byteOffset": 20016,
      "componentType": 5126,
      "count": 10104,
      "max": [
        0.9935399889945984,
        0.9980400204658508
      ],
      "min": [
        0.0019499999471008778,
        0.0019499999471008778
      ],
      "type": "VEC2"
    },
    {
      "bufferView": 0,
      "byteOffset": 10992,
      "componentType": 5125,
      "count": 58206,
      "type": "SCALAR"
    },
    {
      "bufferView": 2,
      "byteOffset": 302544,
      "componentType": 5126,
      "count": 65532,
      "max": [
        4.0288801193237305,
        2.539220094680786,
        3.1997499465942383
      ],
      "min": [
        -2.1022300720214844,
        -2.6127800941467285,
        -2.701040029525757
      ],
      "type": "VEC3"
    },
    {
      "bufferView": 2,
      "byteOffset": 1088928,
      "componentType": 5126,
      "count": 65532,
      "max": [
        0.9999905228614807,
        0.9999979138374329,
        0.9999962449073792
      ],
      "min": [
        -0.9999427199363708,
        -0.999981701374054,
        -0.9999997019767761
      ],
      "type": "VEC3"
    },
    {
      "bufferView": 1,
      "byteOffset": 100848,
      "componentType": 5126,
      "count": 65532,
      "max": [
        0.9980400204658508,
        0.9980400204658508
      ],
      "min": [
        0.0019499999471008778,
        0.00343999988399446
      ],
      "type": "VEC2"
    },
    {
      "bufferView": 0,
      "byteOffset": 243816,
      "componentType": 5125,
      "count": 356307,
      "type": "SCALAR"
    },
    {
      "bufferView": 2,
      "byteOffset": 1875312,
      "componentType": 5126,
      "count": 6887,
      "max": [
        4.020860195159912,
        2.410629987716675,
        3.1997499465942383
      ],
      "min": [
        -1.9873900413513184,
        -2.5801000595092773,
        -2.6484999656677246
      ],
      "type": "VEC3"
    },
    {
      "bufferView": 2,
      "byteOffset": 1957956,
      "componentType": 5126,
      "count": 6887,
      "max": [
        0.999308705329895,
        0.9997971653938293,
        0.9999702572822571
      ],
      "min": [
        -0.9998704791069031,
        -0.9999098777770996,
        -0.9999982714653015
      ],
      "type": "VEC3"
    },
    {
      "bufferView": 1,
      "byteOffset": 625104,
      "componentType": 5126,
      "count": 6887,
      "max": [
        0.988099992275238,
        0.9847400188446045
      ],
      "min": [
        0.0019499999471008778,
        0.003949999809265137
      ],
      "type": "VEC2"
    },
    {
      "bufferView": 0,
      "byteOffset": 1669044,
      "componentType": 5125,
      "count": 26133,
      "type": "SCALAR"
    }
  ],
  "asset": {
    "extras": {
      "author": "Virtual Museums of Małopolska (https://sketchfab.com/WirtualneMuzeaMalopolski)",
      "license": "CC0-1.0 (http://creativecommons.org/publicdomain/zero/1.0/)",
      "source": "https://sketchfab.com/3d-models/ring-with-rubies-and-pearls-5871ec8ba9974cc585b4e0e56c949d9f",
      "title": "Ring with rubies and pearls"
    },
    "generator": "Sketchfab-12.68.0",
    "version": "2.0"
  },
  "bufferViews": [
    {
      "buffer": 0,
      "byteLength": 1773576,
      "name": "floatBufferViews",
      "target": 34963
    },
    {
      "buffer": 0,
      "byteLength": 680200,
      "byteOffset": 1773576,
      "byteStride": 8,
      "name": "floatBufferViews",
      "target": 34962
    },
    {
      "buffer": 0,
      "byteLength": 2040600,
      "byteOffset": 2453776,
      "byteStride": 12,
      "name": "floatBufferViews",
      "target": 34962
    }
  ],
  "buffers": [
    {
      "byteLength": 4494376,
      "uri": "scene.bin"
    }
  ],
  "extensionsUsed": [
    "KHR_materials_clearcoat",
    "KHR_materials_transmission"
  ],
  "images": [
    {
      "uri": "textures/defaultMat.005_baseColor.jpeg"
    },
    {
      "uri": "textures/defaultMat.005_metallicRoughness.png"
    },
    {
      "uri": "textures/defaultMat.003_baseColor.jpeg"
    },
    {
      "uri": "textures/defaultMat.002_baseColor.jpeg"
    },
    {
      "uri": "textures/defaultMat.001_baseColor.jpeg"
    }
  ],
  "materials": [
    {
      "doubleSided": true,
      "name": "defaultMat.005",
      "pbrMetallicRoughness": {
        "baseColorTexture": {
          "index": 0
        },
        "metallicRoughnessTexture": {
          "index": 1
        }
      }
    },
    {
      "doubleSided": true,
      "emissiveFactor": [
        0.078125,
        0.078125,
        0.078125
      ],
      "name": "defaultMat.003",
      "pbrMetallicRoughness": {
        "baseColorTexture": {
          "index": 2
        },
        "metallicFactor": 0.5809832317,
        "roughnessFactor": 0.5870807927
      }
    },
    {
      "alphaMode": "BLEND",
      "doubleSided": true,
      "extensions": {
        "KHR_materials_clearcoat": {
          "clearcoatFactor": 1.0,
          "clearcoatRoughnessFactor": 0.04
        },
        "KHR_materials_transmission": {
          "transmissionFactor": 0.5626905488
        }
      },
      "name": "defaultMat.002",
      "pbrMetallicRoughness": {
        "baseColorFactor": [
          1.0,
          1.0,
          1.0,
          0.4373094512
        ],
        "baseColorTexture": {
          "index": 3
        },
        "metallicFactor": 0.6297637195,
        "roughnessFactor": 0.09584603660000002
      }
    },
    {
      "alphaMode": "BLEND",
      "doubleSided": true,
      "extensions": {
        "KHR_materials_clearcoat": {
          "clearcoatFactor": 1.0,
          "clearcoatRoughnessFactor": 0.04
        },
        "KHR_materials_transmission": {
          "transmissionFactor": 0.028772865900000055
        }
      },
      "name": "defaultMat.001",
      "pbrMetallicRoughness": {
        "baseColorFactor": [
          1.0,
          0.137884202,
          0.5528174668,
          0.9712271341
        ],
        "baseColorTexture": {
          "index": 4
        },
        "metallicFactor": 0.7151295732,
        "roughnessFactor": 0.07755335370000005
      }
    }
  ],
  "meshes": [
    {
      "name": "kamien_duzy_0",
      "primitives": [
        {
          "attributes": {
            "NORMAL": 1,
            "POSITION": 0,
            "TEXCOORD_0": 2
          },
          "indices": 3,
          "material": 3,
          "mode": 4
        }
      ]
    },
    {
      "name": "kamienie_male_0",
      "primitives": [
        {
          "attributes": {
            "NORMAL": 5,
            "POSITION": 4,
            "TEXCOORD_0": 6
          },
          "indices": 7,
          "material": 2,
          "mode": 4
        }
      ]
    },
    {
      "name": "perly_0",
      "primitives": [
        {
          "attributes": {
            "NORMAL": 9,
            "POSITION": 8,
            "TEXCOORD_0": 10
          },
          "indices": 11,
          "material": 1,
          "mode": 4
        }
      ]
    },
    {
      "name": "pierscien_64K_edit19.001_0",
      "primitives": [
        {
          "attributes": {
            "NORMAL": 13,
            "POSITION": 12,
            "TEXCOORD_0": 14
          },
          "indices": 15,
          "material": 0,
          "mode": 4
        }
      ]
    },
    {
      "name": "pierscien_64K_edit19.001_0",
      "primitives": [
        {
          "attributes": {
            "NORMAL": 17,
            "POSITION": 16,
            "TEXCOORD_0": 18
          },
          "indices": 19,
          "material": 0,
          "mode": 4
        }
      ]
    }
  ],
  "nodes": [
    {
      "children": [
        1
      ],
      "matrix": [
        1.0,
        0.0,
        0.0,
        0.0,
        0.0,
        2.220446049250313e-16,
        -1.0,
        0.0,
        0.0,
        1.0,
        2.220446049250313e-16,
        0.0,
        0.0,
        0.0,
        0.0,
        1.0
      ],
      "name": "Sketchfab_model"
    },
    {
      "children": [
        2,
        4,
        6,
        8
      ],
      "name": "Root"
    },
    {
      "children": [
        3
      ],
      "matrix": [
        4.3213,
        -1.46247,
        0.5286400000000001,
        0.0,
        -0.47724,
        0.23870000000000002,
        4.56149,
        0.0,
        -1.48004,
        -4.34697,
        0.07262000000000002,
        0.0,
        -2.12188,
        -1.80718,
        -0.13363,
        1.0
      ],
      "name": "kamien_duzy"
    },
    {
      "mesh": 0,
      "name": "kamien_duzy_0"
    },
    {
      "children": [
        5
      ],
      "matrix": [
        4.3213,
        -1.46247,
        0.5286400000000001,
        0.0,
        -0.47724,
        0.23870000000000002,
        4.56149,
        0.0,
        -1.48004,
        -4.34697,
        0.07262000000000002,
        0.0,
        -2.66074,
        -1.1646,
        0.14167,
        1.0
      ],
      "name": "kamienie_male"
    },
    {
      "mesh": 1,
      "name": "kamienie_male_0"
    },
    {
      "children": [
        7
      ],
      "matrix": [
        4.3213,
        -1.46247,
        0.5286400000000001,
        0.0,
        -0.47724,
        0.23870000000000002,
        4.56149,
        0.0,
        -1.48004,
        -4.34697,
        0.07262000000000002,
        0.0,
        -2.8125299999999998,
        -0.06972000000000003,
        -0.11244000000000001,
        1.0
      ],
      "name": "perly"
    },
    {
      "mesh": 2,
      "name": "perly_0"
    },
    {
      "children": [
        9,
        10
      ],
      "matrix": [
        4.3213,
        -1.46247,
        0.5286400000000001,
        0.0,
        -0.47724,
        0.23870000000000002,
        4.56149,
        0.0,
        -1.48004,
        -4.34697,
        0.07262000000000002,
        0.0,
        1.17926,
        -0.8487900000000002,
        0.6183700000000001,
        1.0
      ],
      "name": "pierscien_64K_edit19.001"
    },
    {
      "mesh": 3,
      "name": "pierscien_64K_edit19.001_0"
    },
    {
      "mesh": 4,
      "name": "pierscien_64K_edit19.001_0"
    }
  ],
  "samplers": [
    {
      "magFilter": 9729,
      "minFilter": 9987,
      "wrapS": 10497,
      "wrapT": 10497
    }
  ],
  "scene": 0,
  "scenes": [
    {
      "name": "Sketchfab_Scene",
      "nodes": [
        0
      ]
    }
  ],
  "textures": [
    {
      "sampler": 0,
      "source": 0
    },
    {
      "sampler": 0,
      "source": 1
    },
    {
      "sampler": 0,
      "source": 2
    },
    {
      "sampler": 0,
      "source": 3
    },
    {
      "sampler": 0,
      "source": 4
    }
  ]
}
