{
  "accessors": [
    {
      "bufferView": 2,
      "componentType": 5126,
      "count": 65532,
      "max": [
        9.056303024291992,
        8.780508995056152,
        10.606253623962402
      ],
      "min": [
        -5.629094123840332,
        -10.211020469665527,
        -11.08775520324707
      ],
      "type": "VEC3"
    },
    {
      "bufferView": 2,
      "byteOffset": 786384,
      "componentType": 5126,
      "count": 65532,
      "max": [
        0.9999986290931702,
        0.9999224543571472,
        0.9999911189079285
      ],
      "min": [
        -0.9999972581863403,
        -0.9999706149101257,
        -0.9999709129333496
      ],
      "type": "VEC3"
    },
    {
      "bufferView": 3,
      "componentType": 5126,
      "count": 65532,
      "max": [
        0.9999220967292786,
        0.9999870657920837,
        0.9702903032302856,
        1.0
      ],
      "min": [
        -0.9999560713768005,
        -0.9962872862815857,
        -0.9986985921859741,
        1.0
      ],
      "type": "VEC4"
    },
    {
      "bufferView": 1,
      "componentType": 5126,
      "count": 65532,
      "max": [
        0.9925600290298462,
        0.8067799806594849
      ],
      "min": [
        0.016860000789165497,
        0.014329999685287476
      ],
      "type": "VEC2"
    },
    {
      "bufferView": 0,
      "componentType": 5125,
      "count": 317871,
      "type": "SCALAR"
    },
    {
      "bufferView": 2,
      "byteOffset": 1572768,
      "componentType": 5126,
      "count": 65532,
      "max": [
        9.037705421447754,
        10.56247329711914,
        10.817853927612305
      ],
      "min": [
        -5.867207050323486,
        -9.918243408203125,
        -11.068361282348633
      ],
      "type": "VEC3"
    },
    {
      "bufferView": 2,
      "byteOffset": 2359152,
      "componentType": 5126,
      "count": 65532,
      "max": [
        0.9999468922615051,
        0.9999964237213135,
        0.9999914169311523
      ],
      "min": [
        -0.9999839067459106,
        -0.9999971389770508,
        -0.9999849200248718
      ],
      "type": "VEC3"
    },
    {
      "bufferView": 3,
      "byteOffset": 1048512,
      "componentType": 5126,
      "count": 65532,
      "max": [
        0.9999663233757019,
        0.9999386668205261,
        0.9985483884811401,
        1.0
      ],
      "min": [
        -0.9999822974205017,
        -0.9999663233757019,
        -0.9999480247497559,
        1.0
      ],
      "type": "VEC4"
    },
    {
      "bufferView": 1,
      "byteOffset": 524256,
      "componentType": 5126,
      "count": 65532,
      "max": [
        0.9608299732208252,
        0.7718799710273743
      ],
      "min": [
        0.0019499999471008778,
        0.013120000250637531
      ],
      "type": "VEC2"
    },
    {
      "bufferView": 0,
      "byteOffset": 1271484,
      "componentType": 5125,
      "count": 313362,
      "type": "SCALAR"
    },
    {
      "bufferView": 2,
      "byteOffset": 3145536,
      "componentType": 5126,
      "count": 65532,
      "max": [
        8.856947898864746,
        10.336444854736328,
        9.56746768951416
      ],
      "min": [
        -18.336265563964844,
        -10.232177734375,
        -11.08775520324707
      ],
      "type": "VEC3"
    },
    {
      "bufferView": 2,
      "byteOffset": 3931920,
      "componentType": 5126,
      "count": 65532,
      "max": [
        0.9999911189079285,
        0.9999901056289673,
        0.9999394416809082
      ],
      "min": [
        -0.9999979138374329,
        -0.9999870657920837,
        -0.999999463558197
      ],
      "type": "VEC3"
    },
    {
      "bufferView": 3,
      "byteOffset": 2097024,
      "componentType": 5126,
      "count": 65532,
      "max": [
        0.9999977350234985,
        0.9999869465827942,
        0.7668319940567017,
        1.0
      ],
      "min": [
        -0.9999983310699463,
        -0.9776917695999146,
        -0.9868621826171875,
        1.0
      ],
      "type": "VEC4"
    },
    {
      "bufferView": 1,
      "byteOffset": 1048512,
      "componentType": 5126,
      "count": 65532,
      "max": [
        0.9796900153160095,
        0.9980400204658508
      ],
      "min": [
        0.003160000080242753,
        0.009840000420808792
      ],
      "type": "VEC2"
    },
    {
      "bufferView": 0,
      "byteOffset": 2524932,
      "componentType": 5125,
      "count": 321459,
      "type": "SCALAR"
    },
    {
      "bufferView": 2,
      "byteOffset": 4718304,
      "componentType": 5126,
      "count": 65532,
      "max": [
        9.056220054626465,
        10.551570892333984,
        10.816291809082031
      ],
      "min": [
        -18.315349578857422,
        -9.804604530334473,
        -11.071479797363281
      ],
      "type": "VEC3"
    },
    {
      "bufferView": 2,
      "byteOffset": 5504688,
      "componentType": 5126,
      "count": 65532,
      "max": [
        0.9999954104423523,
        0.9999931454658508,
        0.9999987483024597
      ],
      "min": [
        -0.9999971985816956,
        -0.9999971389770508,
        -0.9999709129333496
      ],
      "type": "VEC3"
    },
    {
      "bufferView": 3,
      "byteOffset": 3145536,
      "componentType": 5126,
      "count": 65532,
      "max": [
        0.9999663233757019,
        0.9998986721038818,
        0.9932664036750793,
        1.0
      ],
      "min": [
        -0.9999930262565613,
        -0.9988919496536255,
        -0.9999480247497559,
        1.0
      ],
      "type": "VEC4"
    },
    {
      "bufferView": 1,
      "byteOffset": 1572768,
      "componentType": 5126,
      "count": 65532,
      "max": [
        0.9925699830055237,
        0.8702899813652039
      ],
      "min": [
        0.0032099999953061342,
        0.0073899999260902405
      ],
      "type": "VEC2"
    },
    {
      "bufferView": 0,
      "byteOffset": 3810768,
      "componentType": 5125,
      "count": 264909,
      "type": "SCALAR"
    },
    {
      "bufferView": 2,
      "byteOffset": 6291072,
      "componentType": 5126,
      "count": 19343,
      "max": [
        3.2594470977783203,
        10.369817733764648,
        8.015037536621094
      ],
      "min": [
        -18.26756477355957,
        -10.232177734375,
        -10.04873275756836
      ],
      "type": "VEC3"
    },
    {
      "bufferView": 2,
      "byteOffset": 6523188,
      "componentType": 5126,
      "count": 19343,
      "max": [
        0.9999911189079285,
        0.9999964237213135,
        0.9998957514762878
      ],
      "min": [
        -0.9999663829803467,
        -0.9999696016311646,
        -0.9999834299087524
      ],
      "type": "VEC3"
    },
    {
      "bufferView": 3,
      "byteOffset": 4194048,
      "componentType": 5126,
      "count": 19343,
      "max": [
        0.9999947547912598,
        0.999700129032135,
        0.7779364585876465,
        1.0
      ],
      "min": [
        -0.9999983310699463,
        -0.5697773694992065,
        -0.9259824156761169,
        1.0
      ],
      "type": "VEC4"
    },
    {
      "bufferView": 1,
      "byteOffset": 2097024,
      "componentType": 5126,
      "count": 19343,
      "max": [
        0.9806600213050842,
        0.9968699812889099
      ],
      "min": [
        0.0064199999906122684,
        0.0019499999471008778
      ],
      "type": "VEC2"
    },
    {
      "bufferView": 0,
      "byteOffset": 4870404,
      "componentType": 5125,
      "count": 85323,
      "type": "SCALAR"
    }
  ],
  "asset": {
    "extras": {
      "author": "Virtual Museums of Małopolska (https://sketchfab.com/WirtualneMuzeaMalopolski)",
      "license": "CC0-1.0 (http://creativecommons.org/publicdomain/zero/1.0/)",
      "source": "https://sketchfab.com/3d-models/ring-for-perfume-9115e1300bb94857b7ad05ad416b7d9e",
      "title": "Ring for perfume"
    },
    "generator": "Sketchfab-12.68.0",
    "version": "2.0"
  },
  "bufferViews": [
    {
      "buffer": 0,
      "byteLength": 5211696,
      "name": "floatBufferViews",
      "target": 34963
    },
    {
      "buffer": 0,
      "byteLength": 2251768,
      "byteOffset": 5211696,
      "byteStride": 8,
      "name": "floatBufferViews",
      "target": 34962
    },
    {
      "buffer": 0,
      "byteLength": 6755304,
      "byteOffset": 7463464,
      "byteStride": 12,
      "name": "floatBufferViews",
      "target": 34962
    },
    {
      "buffer": 0,
      "byteLength": 4503536,
      "byteOffset": 14218768,
      "byteStride": 16,
      "name": "floatBufferViews",
      "target": 34962
    }
  ],
  "buffers": [
    {
      "byteLength": 18722304,
      "uri": "scene.bin"
    }
  ],
  "images": [
    {
      "uri": "textures/defaultMat_baseColor.jpeg"
    },
    {
      "uri": "textures/defaultMat_metallicRoughness.png"
    },
    {
      "uri": "textures/defaultMat_emissive.jpeg"
    },
    {
      "uri": "textures/defaultMat_normal.png"
    }
  ],
  "materials": [
    {
      "doubleSided": true,
      "emissiveFactor": [
        0.01714939024390244,
        0.01714939024390244,
        0.01714939024390244
      ],
      "emissiveTexture": {
        "index": 2
      },
      "name": "defaultMat",
      "normalTexture": {
        "index": 3
      },
      "pbrMetallicRoughness": {
        "baseColorTexture": {
          "index": 0
        },
        "metallicRoughnessTexture": {
          "index": 1
        },
        "roughnessFactor": 0.2726753049
      }
    }
  ],
  "meshes": [
    {
      "name": "Object_0",
      "primitives": [
        {
          "attributes": {
            "NORMAL": 1,
            "POSITION": 0,
            "TANGENT": 2,
            "TEXCOORD_0": 3
          },
          "indices": 4,
          "material": 0,
          "mode": 4
        }
      ]
    },
    {
      "name": "Object_1",
      "primitives": [
        {
          "attributes": {
            "NORMAL": 6,
            "POSITION": 5,
            "TANGENT": 7,
            "TEXCOORD_0": 8
          },
          "indices": 9,
          "material": 0,
          "mode": 4
        }
      ]
    },
    {
      "name": "Object_2",
      "primitives": [
        {
          "attributes": {
            "NORMAL": 11,
            "POSITION": 10,
            "TANGENT": 12,
            "TEXCOORD_0": 13
          },
          "indices": 14,
          "material": 0,
          "mode": 4
        }
      ]
    },
    {
      "name": "Object_3",
      "primitives": [
        {
          "attributes": {
            "NORMAL": 16,
            "POSITION": 15,
            "TANGENT": 17,
            "TEXCOORD_0": 18
          },
          "indices": 19,
          "material": 0,
          "mode": 4
        }
      ]
    },
    {
      "name": "Object_4",
      "primitives": [
        {
          "attributes": {
            "NORMAL": 21,
            "POSITION": 20,
            "TANGENT": 22,
            "TEXCOORD_0": 23
          },
          "indices": 24,
          "material": 0,
          "mode": 4
        }
      ]
    }
  ],
  "nodes": [
    {
      "children": [
        1
      ],
      "matrix": [
        1.0,
        0.0,
        0.0,
        0.0,
        0.0,
        2.220446049250313e-16,
        -1.0,
        0.0,
        0.0,
        1.0,
        2.220446049250313e-16,
        0.0,
        0.0,
        0.0,
        0.0,
        1.0
      ],
      "name": "Sketchfab_model"
    },
    {
      "children": [
        2,
        3,
        4,
        5,
        6
      ],
      "name": "pierscien_sketchfab.obj.cleaner.materialmerger.gles"
    },
    {
      "mesh": 0,
      "name": "Object_2"
    },
    {
      "mesh": 1,
      "name": "Object_3"
    },
    {
      "mesh": 2,
      "name": "Object_4"
    },
    {
      "mesh": 3,
      "name": "Object_5"
    },
    {
      "mesh": 4,
      "name": "Object_6"
    }
  ],
  "samplers": [
    {
      "magFilter": 9729,
      "minFilter": 9987,
      "wrapS": 10497,
      "wrapT": 10497
    }
  ],
  "scene": 0,
  "scenes": [
    {
      "name": "Sketchfab_Scene",
      "nodes": [
        0
      ]
    }
  ],
  "textures": [
    {
      "sampler": 0,
      "source": 0
    },
    {
      "sampler": 0,
      "source": 1
    },
    {
      "sampler": 0,
      "source": 2
    },
    {
      "sampler": 0,
      "source": 3
    }
  ]
}
